<?xml version="1.0" encoding="UTF-8"?>
<svg width="40px" height="60px" viewBox="0 0 40 60" version="1.1" xmlns="http://www.w3.org/2000/svg" xmlns:xlink="http://www.w3.org/1999/xlink">
    <!-- Generator: Sketch 43.2 (39069) - http://www.bohemiancoding.com/sketch -->
    <title>icon</title>
    <desc>Created with Sketch.</desc>
    <defs></defs>
    <g id="Page-1" stroke="none" stroke-width="1" fill="none" fill-rule="evenodd">
        <g id="12151-NO25W6" transform="translate(-197.000000, -597.000000)" fill="#FFFFFF">
            <g id="icon" transform="translate(197.000000, 597.000000)">
                <path d="M0,29.8 L24.9916726,29.8 C33.280543,29.8 40,36.5139073 40,44.8 C40,53.0842712 33.2823519,59.8 24.9916726,59.8 L15.0083274,59.8 C6.71945704,59.8 0,53.0860927 0,44.8 L0,29.8 Z M15.4,34.4991718 L15.4,51.5008282 C15.4,53.9814584 17.4147186,56 19.9,56 C22.3802243,56 24.4,53.9856522 24.4,51.5008282 L24.4,34.4991718 C24.4,32.0185416 22.3852814,30 19.9,30 C17.4197757,30 15.4,32.0143478 15.4,34.4991718 Z" id="Combined-Shape"></path>
                <path d="M0,15 C0,6.71572875 6.71764809,0 15.0083274,0 L24.9916726,0 C33.280543,0 40,6.71390727 40,15 C40,23.2842712 33.2823519,30 24.9916726,30 L0,30 L0,15 Z M4.8,14.8 C4.8,20.3240618 9.27714768,24.8 14.7999892,24.8 L24.8000108,24.8 C30.3249049,24.8 34.8,20.3228475 34.8,14.8 C34.8,9.27593818 30.3228523,4.8 24.8000108,4.8 L14.7999892,4.8 C9.27509512,4.8 4.8,9.2771525 4.8,14.8 Z" id="Combined-Shape"></path>
                <circle id="Oval" cx="19.8" cy="15.6" r="5"></circle>
            </g>
        </g>
    </g>
</svg>