<?xml version="1.0" encoding="UTF-8"?>
<svg width="347px" height="285px" viewBox="0 0 347 285" version="1.1" xmlns="http://www.w3.org/2000/svg" xmlns:xlink="http://www.w3.org/1999/xlink">
    <!-- Generator: Sketch 49.3 (51167) - http://www.bohemiancoding.com/sketch -->
    <title>sticker_white</title>
    <desc>Created with Sketch.</desc>
    <defs></defs>
    <g id="Page-1" stroke="none" stroke-width="1" fill="none" fill-rule="evenodd">
        <g id="sticker_white" fill="#FFFFFF">
            <path d="M214,129 L277,129 C288.045695,129 297,137.954305 297,149 L297,217 C297,228.045695 288.045695,237 277,237 L214,237 C202.954305,237 194,228.045695 194,217 L194,149 C194,137.954305 202.954305,129 214,129 Z M74,41 L137,41 C148.045695,41 157,49.954305 157,61 L157,129 C157,140.045695 148.045695,149 137,149 L74,149 C62.954305,149 54,140.045695 54,129 L54,61 C54,49.954305 62.954305,41 74,41 Z M50,285 L297,285 C324.614237,285 347,262.614237 347,235 L347,50 C347,22.3857625 324.614237,-5.07265313e-15 297,0 L50,0 C22.3857625,5.07265313e-15 -1.04871961e-14,22.3857625 -7.10542736e-15,50 L0,235 C3.38176876e-15,262.614237 22.3857625,285 50,285 Z" id="Fill-4"></path>
        </g>
    </g>
</svg>